<?xml version="1.0" encoding="iso-8859-1"?>
<!-- Generator: Adobe Illustrator 16.0.4, SVG Export Plug-In . SVG Version: 6.00 Build 0)  -->
<!DOCTYPE svg PUBLIC "-//W3C//DTD SVG 1.1//EN" "http://www.w3.org/Graphics/SVG/1.1/DTD/svg11.dtd">
<svg version="1.1" id="Layer_1" xmlns="http://www.w3.org/2000/svg" xmlns:xlink="http://www.w3.org/1999/xlink" x="0px" y="0px"
	 width="120px" height="120px" viewBox="0 0 120 120" style="enable-background:new 0 0 120 120;" xml:space="preserve">
<rect style="fill:#ECECEC;" width="120" height="120"/>
<rect x="120" y="0" style="fill:#ECECEC;" width="120" height="120"/>
<g>
	<path style="fill:#6F6F6E;" d="M23.733,107.381l-0.672,0.673l-2.369-1.969c-0.656,0.479-1.537,0.752-2.577,0.752
		c-3.122,0-4.882-2.449-4.882-5.971s1.857-5.746,4.882-5.746c3.297,0,4.77,2.705,4.77,5.938c0,1.856-0.48,3.281-1.505,4.401
		L23.733,107.381z M18.083,96.032c-2.321,0-3.777,1.857-3.777,4.786c0,3.138,1.489,5.09,3.857,5.09c2.209,0,3.633-1.84,3.633-4.865
		C21.796,97.89,20.372,96.032,18.083,96.032z"/>
	<path style="fill:#6F6F6E;" d="M33.252,101.619c0,1.952-0.144,2.896-0.688,3.713c-0.672,0.993-1.873,1.505-3.49,1.505
		c-1.568,0-2.785-0.561-3.441-1.553c-0.592-0.896-0.657-1.969-0.657-3.617v-6.339h1.009v6.947c0,0.96,0.128,1.776,0.528,2.433
		c0.48,0.784,1.424,1.217,2.593,1.217s2.017-0.32,2.609-1.137c0.464-0.641,0.528-1.553,0.528-2.561v-6.899h1.008V101.619z"/>
	<path style="fill:#6F6F6E;" d="M42.612,106.629l-1.185-3.297h-5.106l-1.2,3.297H34l4.402-11.301h1.056l4.274,11.301H42.612z
		 M41.107,102.451c-1.489-4.018-1.857-4.978-2.209-6.019c-0.352,1.009-0.736,2.033-2.241,6.019H41.107z"/>
	<path style="fill:#6F6F6E;" d="M52.1,106.629l-3.377-4.962h-2.705v4.962h-1.008V95.328h3.473c1.152,0,2.113,0.032,2.896,0.368
		c0.913,0.385,1.602,1.393,1.602,2.753c0,1.761-1.121,2.882-3.202,3.105l3.57,5.074H52.1z M48.643,100.755
		c1.2,0,2.097-0.192,2.609-0.656c0.447-0.4,0.656-0.929,0.656-1.681c0-0.736-0.272-1.377-0.849-1.761
		c-0.544-0.385-1.329-0.417-2.417-0.417h-2.625v4.515H48.643z"/>
	<path style="fill:#6F6F6E;" d="M62.324,106.629l-1.186-3.297h-5.105l-1.2,3.297h-1.12l4.401-11.301h1.056l4.274,11.301H62.324z
		 M60.819,102.451c-1.489-4.018-1.856-4.978-2.209-6.019c-0.353,1.009-0.736,2.033-2.241,6.019H60.819z"/>
	<path style="fill:#6F6F6E;" d="M72.195,106.629c-4.962-7.491-5.73-8.628-6.53-9.956c0.016,0.977,0.032,2.193,0.032,9.956h-0.977
		V95.328h1.168c5.154,7.812,5.826,8.852,6.499,9.94c-0.032-1.265-0.048-2.737-0.048-9.94h0.992v11.301H72.195z"/>
	<path style="fill:#6F6F6E;" d="M78.481,106.629V96.257h-3.458v-0.929h7.972v0.929h-3.474v10.372H78.481z"/>
	<path style="fill:#6F6F6E;" d="M84.705,106.629V95.328h1.008v11.301H84.705z"/>
	<path style="fill:#6F6F6E;" d="M95.748,106.629c-4.963-7.491-5.73-8.628-6.531-9.956c0.016,0.977,0.031,2.193,0.031,9.956h-0.977
		V95.328h1.17c5.154,7.812,5.826,8.852,6.498,9.94c-0.031-1.265-0.049-2.737-0.049-9.94h0.992v11.301H95.748z"/>
	<path style="fill:#6F6F6E;" d="M99.439,106.629V95.328h7.188v0.929h-6.162v4.081h5.602v0.929h-5.602v4.434h6.547v0.929H99.439z"/>
</g>
<g>
	<circle style="fill:none;stroke:#6F6F6E;stroke-width:0.75;stroke-miterlimit:10;" cx="60" cy="51.77" r="28.2"/>
	<line style="fill:none;stroke:#6F6F6E;stroke-width:0.75;stroke-miterlimit:10;" x1="60" y1="23.57" x2="60" y2="79.969"/>
	
		<line style="fill:none;stroke:#6F6F6E;stroke-width:0.75;stroke-miterlimit:10;" x1="73.038" y1="26.761" x2="73.038" y2="76.774"/>
	
		<line style="fill:none;stroke:#6F6F6E;stroke-width:0.75;stroke-miterlimit:10;" x1="46.961" y1="27.041" x2="46.961" y2="76.557"/>
</g>
</svg>
