<?xml version="1.0" encoding="iso-8859-1"?>
<!-- Generator: Adobe Illustrator 16.0.4, SVG Export Plug-In . SVG Version: 6.00 Build 0)  -->
<!DOCTYPE svg PUBLIC "-//W3C//DTD SVG 1.1//EN" "http://www.w3.org/Graphics/SVG/1.1/DTD/svg11.dtd">
<svg version="1.1" id="Layer_1" xmlns="http://www.w3.org/2000/svg" xmlns:xlink="http://www.w3.org/1999/xlink" x="0px" y="0px"
	 width="120px" height="120px" viewBox="0 0 120 120" style="enable-background:new 0 0 120 120;" xml:space="preserve">
<rect x="-120" style="fill:#ECECEC;" width="120" height="120"/>
<rect y="0" style="fill:#ECECEC;" width="120" height="120"/>
<g>
	<path style="fill:#6F6F6E;" d="M23.273,95.328h2.865c2.097,0,3.281,0.288,4.193,0.944c1.185,0.849,1.729,2.369,1.729,4.562
		c0,1.952-0.368,3.265-1.328,4.306c-0.881,0.944-2.273,1.488-4.626,1.488h-2.833V95.328z M25.898,105.717
		c2.24,0,3.393-0.416,4.209-1.409c0.641-0.768,0.881-1.904,0.881-3.425c0-1.569-0.305-3.09-1.328-3.81
		c-0.705-0.496-1.602-0.833-3.586-0.833h-1.793v9.477H25.898z"/>
	<path style="fill:#6F6F6E;" d="M34.121,106.629V95.328h1.008v11.301H34.121z"/>
	<path style="fill:#6F6F6E;" d="M45.02,106.629l-1.184-3.297h-5.106l-1.2,3.297h-1.121l4.402-11.301h1.057l4.273,11.301H45.02z
		 M43.516,102.451c-1.488-4.018-1.857-4.978-2.209-6.019c-0.352,1.009-0.736,2.033-2.24,6.019H43.516z"/>
	<path style="fill:#6F6F6E;" d="M54.748,106.629v-1.616c-0.736,1.232-1.969,1.824-3.473,1.824c-2.85,0-4.723-2.272-4.723-5.73
		c0-3.409,1.889-5.986,5.074-5.986c2.337,0,3.602,1.12,4.098,3.025l-1.057,0.368c-0.336-1.505-1.232-2.481-2.945-2.481
		c-2.465,0-4.081,1.938-4.081,5.026c0,2.978,1.536,4.834,3.841,4.834c1.585,0,2.609-0.816,3.042-2.145
		c0.176-0.561,0.224-1.185,0.224-2.033h-3.873v-0.929h4.865v5.843H54.748z"/>
	<path style="fill:#6F6F6E;" d="M65.676,106.629c-4.962-7.491-5.73-8.628-6.53-9.956c0.016,0.977,0.032,2.193,0.032,9.956h-0.977
		V95.328h1.168c5.154,7.812,5.826,8.852,6.499,9.94c-0.032-1.265-0.048-2.737-0.048-9.94h0.992v11.301H65.676z"/>
	<path style="fill:#6F6F6E;" d="M73.803,106.837c-3.186,0-4.945-2.513-4.945-5.954c0-3.521,1.855-5.763,4.881-5.763
		c3.25,0,4.754,2.705,4.754,5.923C78.492,104.596,76.684,106.837,73.803,106.837z M73.707,96.032c-2.321,0-3.794,1.857-3.794,4.803
		c0,3.121,1.505,5.073,3.874,5.073c2.209,0,3.633-1.824,3.633-4.865C77.42,97.89,75.996,96.032,73.707,96.032z"/>
	<path style="fill:#6F6F6E;" d="M80.682,103.268c0.543,1.745,1.615,2.657,3.312,2.657c1.617,0,2.817-0.784,2.817-2.193
		c0-1.136-0.656-1.648-2.529-2.272l-0.944-0.32c-2.064-0.688-3.057-1.473-3.057-3.105c0-1.761,1.584-2.929,3.617-2.929
		c2.049,0,3.297,0.977,3.953,2.608l-0.944,0.48c-0.496-1.505-1.601-2.192-2.978-2.192c-1.633,0-2.608,0.8-2.608,1.984
		c0,1.089,0.72,1.585,2.545,2.193l0.992,0.336c2.226,0.72,3.025,1.568,3.025,3.169c0,1.937-1.601,3.169-3.938,3.169
		c-2.097,0-3.554-1.136-4.241-3.121L80.682,103.268z"/>
	<path style="fill:#6F6F6E;" d="M89.912,106.629V95.328H97.1v0.929h-6.162v4.081h5.602v0.929h-5.602v4.434h6.547v0.929H89.912z"/>
</g>
<g>
	<circle style="fill:none;stroke:#6F6F6E;stroke-width:0.75;stroke-miterlimit:10;" cx="82.773" cy="61.945" r="2.309"/>
	<path style="fill:none;stroke:#6F6F6E;stroke-width:0.75;stroke-miterlimit:10;" d="M62.57,24.536v16.149
		c0,6.061-4.913,10.975-10.974,10.975c-6.062,0-10.976-4.914-10.976-10.975V24.536"/>
	<path style="fill:none;stroke:#6F6F6E;stroke-width:0.75;stroke-miterlimit:10;" d="M51.597,51.729v18.385
		c0,11.923,15.438,11.778,15.438,0c0-11.777,0-18.385,0-18.385c0-18.528,15.738-16.661,15.738-4.883c0,11.778,0,13.072,0,13.072"/>
	
		<rect x="40.621" y="24.536" style="fill:none;stroke:#6F6F6E;stroke-width:0.75;stroke-miterlimit:10;" width="3.799" height="6.484"/>
	
		<rect x="58.773" y="24.536" style="fill:none;stroke:#6F6F6E;stroke-width:0.75;stroke-miterlimit:10;" width="3.797" height="6.484"/>
</g>
</svg>
