<?xml version="1.0" encoding="iso-8859-1"?>
<!-- Generator: Adobe Illustrator 16.0.4, SVG Export Plug-In . SVG Version: 6.00 Build 0)  -->
<!DOCTYPE svg PUBLIC "-//W3C//DTD SVG 1.1//EN" "http://www.w3.org/Graphics/SVG/1.1/DTD/svg11.dtd">
<svg version="1.1" id="Layer_1" xmlns="http://www.w3.org/2000/svg" xmlns:xlink="http://www.w3.org/1999/xlink" x="0px" y="0px"
	 width="30px" height="30px" viewBox="0 0 30 30" style="enable-background:new 0 0 30 30;" xml:space="preserve">
<g>
	<g>
		<polygon style="fill:none;stroke:#3C3C3B;stroke-width:0.75;stroke-miterlimit:10;" points="13.614,20.098 29.127,20.098 
			21.37,12.661 		"/>
		
			<rect x="16.195" y="20.098" style="fill:none;stroke:#3C3C3B;stroke-width:0.75;stroke-miterlimit:10;" width="10.351" height="8.487"/>
	</g>
	<g>
		<circle style="fill:none;stroke:#3C3C3B;stroke-width:0.75;stroke-miterlimit:10;" cx="19.105" cy="17.37" r="0.984"/>
		<path style="fill:none;stroke:#3C3C3B;stroke-width:0.75;stroke-miterlimit:10;" d="M10.488,1.414v6.889
			c0,2.585-2.096,4.681-4.681,4.681s-4.681-2.096-4.681-4.681V1.414"/>
		<path style="fill:none;stroke:#3C3C3B;stroke-width:0.75;stroke-miterlimit:10;" d="M5.808,13.014v7.842
			c0,5.084,6.585,5.022,6.585,0c0-5.023,0-7.842,0-7.842c0-7.902,6.713-7.106,6.713-2.084c0,5.025,0,5.576,0,5.576"/>
		
			<rect x="1.127" y="1.414" style="fill:none;stroke:#3C3C3B;stroke-width:0.75;stroke-miterlimit:10;" width="1.62" height="2.766"/>
		
			<rect x="8.869" y="1.414" style="fill:none;stroke:#3C3C3B;stroke-width:0.75;stroke-miterlimit:10;" width="1.619" height="2.766"/>
	</g>
</g>
</svg>
